[center][img]http://img714.imageshack.us/img714/2373/73150813544832352341.jpg[/img]



[img]http://leetleech.org/images/48874973695367351744.png[/img]


Format                           : AVI
Format/Info                      : Audio Video Interleave
File size                        : 1.38 GiB
Duration                         : 1h 43mn
Overall bit rate                 : 1 904 Kbps
Writing application              : VirtualDubMod 1.5.10.3 | www.virtualdub-fr.org || (build 2550/release)
Writing library                  : VirtualDubMod build 2550/release

Video
ID                               : 0
Format                           : MPEG-4 Visual
Format profile                   : Advanced Simple@L5
Format settings, BVOP            : Yes
Format settings, QPel            : No
Format settings, GMC             : No warppoints
Format settings, Matrix          : Default (MPEG)
Codec ID                         : XVID
Codec ID/Hint                    : XviD
Duration                         : 1h 43mn
Bit rate                         : 1 511 Kbps
Width                            : 720 pixels
Height                           : 304 pixels
Display aspect ratio             : 2.35:1
Frame rate                       : 23.976 fps
Color space                      : YUV
Chroma subsampling               : 4:2:0
Bit depth                        : 8 bits
Scan type                        : Progressive
Bits/(Pixel*Frame)               : 0.288
Stream size                      : 1.09 GiB (79%)
Writing library                  : XviD 62

Audio
ID                               : 1
Format                           : AC-3
Format/Info                      : Audio Coding 3
Mode extension                   : CM (complete main)
Codec ID                         : 2000
Duration                         : 1h 43mn
Bit rate mode                    : Constant
Bit rate                         : 384 Kbps
Channel(s)                       : 6 channels
Channel positions                : Front: L C R, Side: L R, LFE
Sampling rate                    : 48.0 KHz
Bit depth                        : 16 bits
Stream size                      : 285 MiB (20%)
Alignment                        : Split accross interleaves
Interleave, duration             : 42 ms (1.00 video frame)
Interleave, preload duration     : 500 ms




[url]http://www.imdb.com/title/tt1411238/[/url]




[IMG]http://leetleech.org/images/89524873606771859129.png[/IMG]



Users: 6.3/10 (10,119 votes) 69 reviews | Critics: 180 reviews Metascore: 50/100 (based on 36 reviews from Metacritic.com)

A guy and girl try to keep their relationship strictly physical, but it's not long before they learn that they want something more.
Director:
Ivan Reitman
Writers:
Elizabeth Meriwether (screenplay), Michael Samonek (story), and 1 more credit »
Stars:
Natalie Portman, Ashton Kutcher and Kevin Kline



[img]http://leetleech.org/images/95521316153253938506.png[/img]




[img]http://img88.imageshack.us/img88/9517/vlcsnap2011042515h42m28.png[/img]

[img]http://img684.imageshack.us/img684/7448/vlcsnap2011042515h42m18.png[/img]

[img]http://img822.imageshack.us/img822/3904/vlcsnap2011042515h42m07.png[/img]



No Strings Attached 2011 720p BluRay X264-AMIABLE .............. Thanks



Greetz to Imagine ,Flawl3ss,DiLLoN,BDK,NOiR,TOXiCiNK,THC,Ez,Rx,Boobyblue





[img]http://img411.imageshack.us/img411/6898/sig1n.jpg[/img]












[/center]